<?xml version="1.0" standalone="no"?>
<!DOCTYPE svg PUBLIC "-//W3C//DTD SVG 20010904//EN"
 "http://www.w3.org/TR/2001/REC-SVG-20010904/DTD/svg10.dtd">
<svg version="1.0" xmlns="http://www.w3.org/2000/svg"
 width="1280.000000pt" height="1280.000000pt" viewBox="0 0 1280.000000 1280.000000"
 preserveAspectRatio="xMidYMid meet">
<metadata>
Created by potrace 1.15, written by Peter Selinger 2001-2017
</metadata>
<g transform="translate(0.000000,1280.000000) scale(0.100000,-0.100000)"
fill="#000000" stroke="none">
<path d="M1955 12480 c-175 -21 -287 -61 -312 -110 -6 -14 -71 -281 -144 -595
-73 -313 -134 -575 -136 -582 -3 -8 15 -13 63 -15 l67 -3 -326 -319 -327 -320
0 -4843 0 -4843 -150 0 -150 0 0 -275 0 -275 1600 0 1600 0 0 275 0 275 -145
0 -145 0 0 4853 0 4852 -325 305 c-178 168 -324 308 -325 313 0 4 29 7 65 7
45 0 65 4 65 13 0 6 -56 277 -125 601 -137 653 -121 606 -215 640 -27 10 -83
24 -127 32 -94 17 -410 26 -508 14z"/>
<path d="M8730 11865 l0 -625 110 0 110 0 0 -182 -1 -183 -101 -55 c-148 -81
-406 -253 -554 -370 -71 -57 -199 -173 -284 -259 -225 -227 -363 -426 -450
-648 l-40 -101 0 -2846 0 -2846 2130 0 2130 0 0 2840 0 2840 -21 62 c-155 457
-652 962 -1311 1330 l-108 60 0 179 0 179 95 0 95 0 0 625 0 625 -900 0 -900
0 0 -625z"/>
<path d="M5463 12159 c-24 -12 -52 -36 -64 -56 l-22 -35 5 -637 c4 -551 7
-640 21 -667 19 -38 45 -380 78 -1024 16 -336 24 -1176 11 -1184 -15 -9 -16
-46 -2 -46 14 0 12 -36 -2 -60 -10 -16 -10 -24 0 -40 7 -12 10 -26 6 -31 -4
-6 -8 -88 -10 -183 -5 -283 -41 -644 -90 -901 -144 -768 -194 -1283 -194
-2012 0 -564 16 -861 90 -1708 76 -862 102 -1249 120 -1745 15 -418 13 -541
-7 -569 -13 -19 -14 -28 -5 -42 17 -26 15 -59 -3 -65 -19 -8 -19 -40 0 -48 22
-8 18 -44 -5 -51 -23 -7 -27 -43 -5 -51 22 -9 18 -42 -5 -49 -23 -7 -27 -43
-5 -51 23 -9 19 -51 -5 -57 -25 -6 -27 -44 -2 -51 12 -4 18 -18 20 -48 6 -101
57 -184 131 -215 46 -20 160 -19 198 0 45 24 97 87 123 150 22 53 26 57 58 57
29 0 33 3 30 22 -2 14 -12 24 -28 28 -23 5 -26 11 -21 39 0 5 13 11 29 13 21
2 27 8 27 28 0 18 -6 26 -22 28 -33 5 -31 42 1 42 33 0 53 25 36 45 -7 8 -21
15 -32 15 -14 0 -18 5 -14 16 3 9 6 19 6 24 0 4 8 6 18 3 26 -6 48 22 32 42
-7 8 -21 15 -32 15 -14 0 -18 5 -14 16 3 9 6 20 6 25 0 6 8 8 19 4 21 -6 46
18 38 39 -3 8 -16 16 -29 18 -16 2 -22 9 -21 23 15 163 25 590 19 865 -13 682
-73 1311 -201 2095 -42 258 -55 487 -55 950 l0 334 110 773 c79 557 117 795
135 853 53 169 97 433 115 690 11 170 14 546 4 588 -4 16 -1 33 6 42 10 12 10
19 2 27 -16 16 -15 53 1 79 10 17 9 22 -4 32 -12 9 -20 54 -33 186 -25 249
-71 554 -200 1324 -63 374 -112 685 -109 693 4 12 51 14 264 14 l259 0 0 30
c0 25 4 30 25 30 22 0 25 4 25 35 0 31 -3 35 -25 35 -21 0 -25 5 -25 30 0 25
4 30 25 30 23 0 25 4 25 40 0 36 -2 40 -25 40 -20 0 -25 5 -25 25 0 20 5 25
25 25 22 0 25 4 25 35 0 31 -3 35 -25 35 -21 0 -25 5 -25 30 0 25 4 30 25 30
22 0 25 4 25 35 0 31 -3 35 -25 35 -20 0 -25 5 -25 25 0 20 5 25 25 25 22 0
25 4 25 35 0 31 -3 35 -25 35 -20 0 -25 5 -25 25 0 20 5 25 26 25 23 0 25 3
22 38 -3 31 -7 37 -25 36 -19 0 -23 5 -23 28 0 23 4 28 25 28 22 0 25 4 25 35
0 31 -3 35 -25 35 -21 0 -25 5 -25 30 0 25 4 30 25 30 22 0 25 4 25 35 0 31
-3 35 -25 35 -20 0 -25 5 -25 25 0 20 5 25 25 25 22 0 25 4 25 35 0 31 -3 35
-25 35 -20 0 -25 5 -25 25 0 20 5 25 25 25 22 0 25 4 25 35 0 31 -3 35 -25 35
-22 0 -25 4 -25 35 l0 35 -263 0 c-256 0 -264 1 -283 21 -53 59 -155 76 -231
38z"/>
<path d="M7990 3188 c0 -25 40 -447 55 -588 113 -1027 287 -1792 483 -2127 57
-97 136 -181 197 -210 l50 -23 845 0 c548 0 858 4 882 10 97 27 213 172 298
373 194 459 343 1237 445 2332 8 88 18 179 21 203 l6 42 -1641 0 c-1306 0
-1641 -3 -1641 -12z"/>
</g>
</svg>
