<?xml version="1.0" standalone="no"?>
<!DOCTYPE svg PUBLIC "-//W3C//DTD SVG 20010904//EN"
 "http://www.w3.org/TR/2001/REC-SVG-20010904/DTD/svg10.dtd">
<svg version="1.0" xmlns="http://www.w3.org/2000/svg"
 width="1280.000000pt" height="1149.000000pt" viewBox="0 0 1280.000000 1149.000000"
 preserveAspectRatio="xMidYMid meet">
<metadata>
Created by potrace 1.15, written by Peter Selinger 2001-2017
</metadata>
<g transform="translate(0.000000,1149.000000) scale(0.100000,-0.100000)"
fill="#000000" stroke="none">
<path d="M10165 11474 c-38 -8 -113 -36 -165 -61 -80 -39 -108 -59 -181 -132
-139 -140 -201 -284 -203 -474 l-1 -98 -60 7 c-33 4 -125 7 -205 6 -413 -3
-832 -158 -1256 -467 -10 -7 -18 -4 -29 12 -24 35 -135 113 -210 149 -89 43
-186 64 -296 64 -315 0 -593 -214 -675 -521 -25 -94 -22 -254 6 -344 59 -187
175 -327 340 -409 54 -26 127 -53 170 -62 93 -20 249 -15 338 11 l62 18 49
-46 c83 -78 244 -175 419 -253 1 -1 -45 -68 -104 -150 -313 -440 -517 -851
-568 -1146 -39 -226 -44 -538 -11 -698 21 -105 84 -228 140 -278 84 -74 167
-101 307 -102 125 0 184 24 268 109 122 123 200 338 218 596 l7 100 29 -85
c81 -239 228 -576 356 -812 358 -663 767 -1108 1233 -1343 247 -124 453 -179
677 -180 l135 0 80 39 c145 71 250 200 276 341 39 210 -83 572 -259 767 -19
21 -32 38 -30 38 2 0 60 -32 129 -71 345 -198 681 -345 924 -404 269 -66 440
-33 575 112 197 210 199 570 5 765 -66 67 -127 100 -230 128 -229 62 -408 155
-610 315 -131 104 -354 336 -389 404 -15 27 -66 280 -66 322 0 16 11 11 66
-31 85 -65 202 -124 301 -151 134 -37 267 -15 377 60 308 212 -53 715 -810
1130 -128 70 -644 313 -776 365 -36 14 -78 26 -93 26 -27 0 -26 0 23 63 27 34
62 85 77 112 16 28 65 88 110 135 161 169 236 302 243 431 4 70 2 84 -25 141
-33 68 -79 131 -172 230 l-59 63 55 35 c30 19 88 69 127 111 311 330 219 853
-186 1056 -129 65 -313 88 -453 57z"/>
<path d="M2533 10459 c-442 -51 -875 -278 -1175 -614 -452 -506 -599 -1204
-388 -1848 95 -288 246 -532 462 -744 169 -166 297 -259 496 -358 248 -124
491 -183 782 -192 523 -16 1017 181 1387 552 784 789 725 2067 -128 2780 -283
236 -625 382 -994 425 -104 11 -338 11 -442 -1z"/>
<path d="M2195 5235 c-161 -35 -352 -154 -413 -257 -20 -33 -24 -35 -130 -47
-45 -5 -88 -13 -95 -19 -6 -5 -28 -13 -47 -17 -19 -4 -84 -23 -145 -42 -368
-118 -597 -307 -660 -543 -19 -72 -19 -212 1 -297 20 -90 79 -235 120 -301 43
-67 86 -95 137 -88 82 10 147 90 322 396 186 324 235 388 353 454 69 39 98 44
127 22 18 -13 18 -16 -9 -103 -78 -255 -75 -465 9 -640 20 -41 35 -76 33 -77
-2 -1 -59 -17 -128 -35 -246 -66 -519 -159 -693 -237 -195 -88 -323 -188 -351
-272 -66 -201 -88 -398 -51 -461 47 -81 135 -100 283 -63 103 26 454 158 722
271 l208 88 -133 -146 c-316 -346 -537 -641 -674 -902 -106 -201 -143 -326
-143 -476 l1 -92 -128 -144 -128 -145 -59 62 c-150 159 -247 181 -347 82 -53
-54 -106 -152 -147 -273 -36 -110 -37 -133 -6 -256 60 -236 215 -466 367 -542
179 -91 375 44 409 283 5 40 9 77 7 84 -2 9 263 260 475 449 l67 60 113 -25
c206 -46 321 -59 528 -60 107 -1 231 2 275 7 l80 7 94 -230 c82 -203 92 -233
83 -258 -66 -168 -12 -372 115 -433 62 -30 133 -22 230 26 137 68 329 276 409
442 l37 75 -1 142 c-1 314 -84 415 -270 331 -34 -15 -64 -26 -66 -24 -2 2 -17
47 -33 99 l-30 95 49 60 c113 140 167 296 175 505 5 139 -17 354 -81 780 -13
85 -23 156 -22 157 1 1 32 -58 69 -131 161 -320 320 -500 461 -523 96 -15 199
56 257 179 34 73 34 74 34 218 0 122 -4 156 -23 217 -66 210 -195 408 -383
588 -80 76 -221 194 -255 213 -13 8 -10 17 24 70 21 33 50 93 63 134 22 66 24
90 24 258 0 102 -3 200 -7 218 -15 64 17 33 66 -65 175 -356 459 -630 632
-610 150 16 241 252 175 449 -60 179 -254 385 -541 576 -63 42 -121 84 -128
95 -9 11 -16 55 -18 112 -4 106 -20 163 -49 179 -11 6 -108 68 -215 137 -107
70 -226 144 -265 165 l-70 39 -230 12 c-292 15 -385 15 -460 -2z"/>
<path d="M9775 3876 c-253 -125 -787 -526 -1356 -1018 l-56 -48 -264 -5 c-660
-12 -1191 -89 -1674 -242 -105 -34 -122 -43 -142 -72 -49 -72 -57 -176 -19
-256 110 -237 612 -397 1426 -455 202 -14 553 -30 690 -30 l115 -1 80 -106
c188 -251 544 -688 729 -898 128 -144 383 -401 481 -483 109 -91 195 -149 246
-162 181 -49 154 268 -74 845 -75 191 -260 570 -350 720 l-55 90 67 7 c36 4
201 14 365 23 385 21 826 60 1021 90 l40 7 126 -159 c287 -360 501 -562 557
-526 13 8 17 25 16 79 -1 120 -120 427 -242 628 -24 38 -41 69 -40 70 27 14
102 85 113 106 23 44 19 102 -10 143 l-24 36 44 93 c89 190 272 823 241 834
-6 2 -48 17 -94 32 l-83 30 -177 -147 c-97 -81 -304 -251 -459 -379 l-283
-233 -332 65 c-335 66 -651 121 -873 151 -185 24 -174 12 -101 109 148 195
326 481 435 696 112 220 149 346 117 395 -27 41 -74 34 -201 -29z"/>
</g>
</svg>
