<?xml version="1.0" standalone="no"?>
<!DOCTYPE svg PUBLIC "-//W3C//DTD SVG 20010904//EN"
 "http://www.w3.org/TR/2001/REC-SVG-20010904/DTD/svg10.dtd">
<svg version="1.0" xmlns="http://www.w3.org/2000/svg"
 width="1274.000000pt" height="1280.000000pt" viewBox="0 0 1274.000000 1280.000000"
 preserveAspectRatio="xMidYMid meet">
<metadata>
Created by potrace 1.15, written by Peter Selinger 2001-2017
</metadata>
<g transform="translate(0.000000,1280.000000) scale(0.100000,-0.100000)"
fill="#000000" stroke="none">
<path d="M5136 11851 c-3 -5 -18 -12 -32 -15 -14 -4 -142 -58 -283 -121 -185
-83 -405 -195 -791 -403 -535 -289 -535 -289 -765 -459 -126 -94 -338 -242
-470 -331 -223 -148 -257 -175 -480 -379 -500 -456 -1033 -972 -1243 -1201
-114 -124 -214 -233 -223 -242 -14 -14 -11 -20 30 -65 92 -102 1238 -1324
1361 -1452 123 -127 194 -180 229 -170 9 2 224 93 479 202 440 188 464 197
493 185 24 -10 29 -17 24 -34 -10 -34 -15 -247 -25 -1111 -6 -451 -15 -1128
-20 -1505 -5 -377 -14 -1036 -20 -1465 -6 -429 -15 -1072 -20 -1430 -5 -357
-7 -651 -5 -653 2 -2 244 -10 537 -18 293 -7 715 -19 938 -26 223 -6 439 -12
480 -13 140 -1 160 -4 160 -20 0 -12 7 -15 33 -10 17 3 104 14 192 24 142 16
206 17 575 10 543 -10 2867 -11 2874 -1 11 19 10 2954 -2 3467 -12 530 -21
939 -43 2046 l-11 556 38 69 c58 109 95 164 109 164 7 0 307 -92 666 -204 360
-112 660 -206 668 -208 9 -2 82 103 206 297 519 814 1030 1621 1030 1626 0 3
-333 278 -740 610 -407 331 -861 702 -1010 824 -315 257 -331 270 -367 281
-15 5 -96 65 -180 134 -84 69 -197 152 -253 184 -156 92 -426 218 -710 333
-367 149 -999 411 -1140 473 -27 12 -75 28 -105 35 l-55 14 -86 -55 c-98 -62
-420 -187 -603 -235 -98 -26 -124 -29 -270 -29 -257 1 -336 11 -554 74 -198
58 -355 123 -507 210 -82 47 -100 53 -109 37z"/>
</g>
</svg>
